# xmcd
#
# Track frame offsets:
#	150
#	19891
#	42290
#	57639
#	74508
#	90822
#	107092
#	123776
#	147103
#	171185
#	188167
#	209820
#	230053
#	253597
#	274656
#	295832
#	319158
#	333080
#
# Disc length: 4685 seconds
#
# Revision: 0
# Processed by: cddbd v1.5.2PL0 Copyright (c) Steve Scherf et al.
# Submitted via: EasyCDDAExtractor 12.0.7.1
#
DISCID=0e124b12
DTITLE=Владимир Захаров - Аллея шансона
DYEAR=2011
DGENRE=Chanson
TTITLE0=Ничего не говори
TTITLE1=Костры
TTITLE2=Не любить невозможно
TTITLE3=Мосты
TTITLE4=Весна
TTITLE5=Позволь тебя любить
TTITLE6=За окном
TTITLE7=А осень плакала
TTITLE8=Два белых лебедя
TTITLE9=Я любви бокал наполню
TTITLE10=Взлети же к небу
TTITLE11=Весенний дождь
TTITLE12=Мне никогда не позабыть тебя
TTITLE13=До дна
TTITLE14=Пасмурное утро
TTITLE15=Поезд
TTITLE16=Спасибо за минутное тепло
TTITLE17=Шипы невинной розы
EXTD=
EXTT0=
EXTT1=
EXTT2=
EXTT3=
EXTT4=
EXTT5=
EXTT6=
EXTT7=
EXTT8=
EXTT9=
EXTT10=
EXTT11=
EXTT12=
EXTT13=
EXTT14=
EXTT15=
EXTT16=
EXTT17=
PLAYORDER=
